<svg xmlns="http://www.w3.org/2000/svg" viewBox="0 0 195 101"><path fill="#C6D6E3" d="M53.979 11.113v9.213c15.499 3.991 26.951 18.06 26.951 34.803 0 19.846-16.089 35.935-35.936 35.935-19.846 0-35.933-16.089-35.933-35.935 0-16.743 11.451-30.813 26.949-34.803v-9.213C15.51 15.274.078 33.399.078 55.129c0 24.809 20.111 44.918 44.917 44.918 24.808 0 44.919-20.109 44.919-44.918 0-21.73-15.432-39.855-35.935-44.016z"/><path fill="#C6D6E3" d="M54.77 12.089c9.453 2.141 18.037 7.422 24.257 14.946a43.97 43.97 0 0 1 7.415 12.905 44.004 44.004 0 0 1 2.684 15.188c0 11.787-4.591 22.869-12.926 31.204-8.335 8.334-19.417 12.925-31.204 12.925-11.786 0-22.867-4.59-31.202-12.925C5.458 77.998.868 66.916.868 55.129c0-5.221.902-10.331 2.683-15.188a43.983 43.983 0 0 1 7.415-12.905c6.22-7.524 14.804-12.805 24.257-14.946v7.63c-15.9 4.374-26.951 18.847-26.951 35.409 0 20.25 16.475 36.724 36.724 36.724 20.251 0 36.726-16.475 36.726-36.724 0-16.562-11.051-31.035-26.951-35.409v-7.631m-.792-.976v9.213c15.499 3.991 26.951 18.06 26.951 34.803 0 19.846-16.089 35.935-35.936 35.935-19.846 0-35.933-16.089-35.933-35.935 0-16.743 11.451-30.813 26.949-34.803v-9.213C15.51 15.274.078 33.399.078 55.129c0 24.809 20.111 44.918 44.917 44.918 24.808 0 44.919-20.109 44.919-44.918 0-21.73-15.432-39.855-35.935-44.016z"/><g fill="#C7D9E7"><path d="M50.161 28.319H39.854V7.726L50.161.047z"/><path d="M49.221 1.921v25.457h-8.425V8.198l8.425-6.277m.94-1.874L39.854 7.726v20.593h10.307V.047z"/></g><g fill="#06C"><path d="M35.684 70.463V36.539h-6.663l-6.468 5.727v4.442h4.679v23.755h-4.643v4.181h17.778v-4.181z"/><path d="M40.763 75.038H22.195v-4.97h4.642V47.102h-4.679v-5.014l6.714-5.945h7.206v33.925h4.685v4.97zm-17.779-.789h16.988v-3.391h-4.684V36.934H29.17l-6.224 5.51v3.869h4.679v24.545h-4.642v3.391z"/></g><g fill="#06C"><path d="M43.747 36.539v38.105h8.444V60.09l8.022 14.554h8.445l-9.671-19.053 9.671-19.052h-8.445l-8.022 15.018V36.539z"/><path d="M69.301 75.038H59.98l-7.393-13.413v13.413h-9.234V36.143h9.234v13.836l7.393-13.836h9.321l-9.872 19.448 9.872 19.447zm-8.856-.789h7.569l-9.471-18.657.091-.179 9.38-18.479H60.45l-8.653 16.2v-16.2h-7.655v37.315h7.655V58.557l8.648 15.692z"/></g><path fill="#F90" d="M85.115 81.508c-8.38 0-15.197-6.818-15.197-15.197 0-8.38 6.817-15.198 15.197-15.198 8.381 0 15.198 6.818 15.198 15.198 0 8.379-6.817 15.197-15.198 15.197z"/><path fill="#F90" d="M85.115 51.507c8.163 0 14.804 6.641 14.804 14.804 0 8.162-6.641 14.802-14.804 14.802-8.162 0-14.803-6.64-14.803-14.802.001-8.163 6.641-14.804 14.803-14.804m0-.789c-8.611 0-15.592 6.981-15.592 15.593s6.98 15.592 15.592 15.592 15.594-6.98 15.594-15.592-6.982-15.593-15.594-15.593z"/><g fill="#06C"><path d="M108.468 38.879h-4.994V51.84h-2.793V36.143h10.579V51.84h-2.792V38.879zM114.727 36.143h8.46v2.736h-5.667v3.656h5.156v2.735h-5.156v3.834h5.769v2.736h-8.562V36.143zM126.386 36.3c.572-.119 1.2-.212 1.886-.279a21.084 21.084 0 0 1 2.049-.101c.707 0 1.417.064 2.131.191a5 5 0 0 1 1.927.762c.57.381 1.036.912 1.396 1.592.359.68.54 1.566.54 2.656 0 .987-.156 1.82-.469 2.5-.313.681-.728 1.237-1.243 1.671a4.831 4.831 0 0 1-1.765.941 7.178 7.178 0 0 1-2.049.292h-.325a10.92 10.92 0 0 1-.949-.045 2.708 2.708 0 0 1-.335-.045v5.404h-2.794V36.3zm4.159 2.265a8.28 8.28 0 0 0-.774.034 5.701 5.701 0 0 0-.591.079v5.09c.054.015.136.031.244.045a4.804 4.804 0 0 0 .704.045h.254c.367 0 .731-.037 1.091-.112a2.55 2.55 0 0 0 .969-.415 2.12 2.12 0 0 0 .683-.841c.17-.358.254-.829.254-1.413 0-.493-.08-.9-.244-1.222a2.137 2.137 0 0 0-.642-.773 2.378 2.378 0 0 0-.907-.404 4.84 4.84 0 0 0-1.041-.113zM148.667 39.8c0 .388-.043.777-.132 1.166a3.344 3.344 0 0 1-.438 1.065 3.27 3.27 0 0 1-.795.853c-.326.246-.72.43-1.183.549v.135c.408.075.795.201 1.162.381s.686.426.958.74c.272.313.486.695.643 1.143.156.448.233.979.233 1.593 0 .807-.156 1.506-.468 2.096a4.107 4.107 0 0 1-1.254 1.446 5.496 5.496 0 0 1-1.784.83 7.854 7.854 0 0 1-2.059.269h-.887a23.619 23.619 0 0 1-2.427-.135 8.145 8.145 0 0 1-1.172-.201V36.257c.259-.045.554-.09.888-.135.333-.045.688-.082 1.069-.112s.771-.052 1.173-.067c.4-.015.798-.022 1.193-.022.665 0 1.313.056 1.945.168s1.196.31 1.692.594c.497.284.894.68 1.193 1.188.302.508.45 1.151.45 1.929zm-6.013 2.937c.189 0 .41-.007.662-.022.252-.014.459-.037.622-.066a3.616 3.616 0 0 0 1.334-.798c.374-.355.562-.822.562-1.398 0-.385-.068-.703-.204-.954a1.63 1.63 0 0 0-.54-.599 2.194 2.194 0 0 0-.765-.311 4.423 4.423 0 0 0-.897-.089c-.353 0-.679.007-.978.022a5.94 5.94 0 0 0-.693.065v4.15h.897zm.917 6.749c.34 0 .67-.044.989-.133.318-.089.602-.226.845-.411.245-.186.442-.418.592-.699.149-.282.225-.615.225-1 0-.488-.089-.873-.266-1.154a1.857 1.857 0 0 0-.692-.655 2.708 2.708 0 0 0-.959-.3 8.558 8.558 0 0 0-1.06-.066h-1.488v4.285c.067.029.177.052.327.066.148.015.308.025.479.034l.529.022c.184.008.344.011.479.011zM152.133 36.143h2.793v5.629c.148-.029.387-.067.714-.112.325-.045.645-.067.957-.067.68 0 1.328.076 1.947.225a3.982 3.982 0 0 1 1.621.796c.461.381.829.896 1.101 1.547s.407 1.469.407 2.455c0 1.825-.481 3.188-1.446 4.093-.966.905-2.399 1.357-4.302 1.357-.19 0-.436-.004-.733-.011-.3-.008-.622-.026-.969-.056s-.704-.067-1.07-.112a6.624 6.624 0 0 1-1.02-.202V36.143zm3.995 13.186c.775 0 1.404-.198 1.886-.594.483-.396.724-1.058.724-1.985 0-.493-.068-.897-.204-1.21a1.825 1.825 0 0 0-.55-.74 1.985 1.985 0 0 0-.814-.37 4.716 4.716 0 0 0-1.694-.045 2.586 2.586 0 0 0-.55.124v4.686c.148.045.33.079.54.101s.431.033.662.033zm7.013-13.186h2.794V51.84h-2.794V36.143zM177.737 43.14l.163-2.041h-.103l-.957 2.108-5.321 8.633h-2.1V36.143h2.793v8.544l-.204 2.108h.122l.999-2.175 5.32-8.477h2.08V51.84h-2.793v-8.7zm-3.975-10.899c.054.479.214.823.479 1.032.265.209.607.313 1.029.313.91 0 1.413-.44 1.509-1.323l2.263.382c-.15.941-.54 1.629-1.172 2.063-.633.433-1.506.649-2.62.649a8.003 8.003 0 0 1-1.528-.134 3.857 3.857 0 0 1-1.214-.438 2.513 2.513 0 0 1-.855-.818c-.225-.344-.364-.77-.419-1.278l2.528-.448z"/></g><g fill="#06C"><path d="M112.021 68.333h-.733v6.705h-2.793V59.341h2.793v6.952l.652-.313 3.935-6.638h3.18l-4.158 6.593-1.102.852 1.143.875 4.749 7.377h-3.444l-4.222-6.706zM128.839 71.563h-4.383l-1.081 3.475h-2.792l5.138-15.809h2.058l5.138 15.809h-2.936l-1.142-3.475zm-3.67-2.467h3.059l-1.061-3.499-.428-2.466h-.103l-.428 2.489-1.039 3.476zM143.701 62.077h-4.16v12.96h-2.793v-12.96h-4.179v-2.736h11.132v2.736zM151.609 71.563h-4.383l-1.08 3.475h-2.793l5.138-15.809h2.059l5.138 15.809h-2.937l-1.142-3.475zm-3.669-2.467h3.058l-1.06-3.499-.428-2.466h-.103l-.429 2.489-1.038 3.476zM165.514 62.072h-3.038a200.698 200.698 0 0 1-.183 3.88 49.56 49.56 0 0 1-.276 3.15 18.82 18.82 0 0 1-.458 2.478c-.191.718-.435 1.338-.734 1.861a3.47 3.47 0 0 1-.642.853 3.332 3.332 0 0 1-.744.538 2.994 2.994 0 0 1-.765.281 3.496 3.496 0 0 1-.704.079c-.313 0-.573-.027-.784-.079a2.869 2.869 0 0 1-.621-.236l.305-2.646a1.336 1.336 0 0 0 .489.089c.218 0 .432-.059.643-.179.211-.12.391-.321.54-.605.204-.329.381-.812.53-1.446.149-.636.282-1.447.397-2.433.115-.987.207-2.164.275-3.532.067-1.368.115-2.964.143-4.787h8.419v15.697h-2.792V62.072zM170.711 67.028c0-2.615.523-4.631 1.57-6.043 1.046-1.413 2.541-2.119 4.484-2.119 1.02 0 1.909.194 2.671.583a5.146 5.146 0 0 1 1.896 1.659c.502.717.876 1.577 1.12 2.579s.367 2.115.367 3.341c0 2.616-.527 4.631-1.58 6.043-1.053 1.413-2.545 2.12-4.475 2.12-1.033 0-1.93-.195-2.69-.583a5.063 5.063 0 0 1-1.886-1.659c-.496-.718-.867-1.577-1.111-2.579s-.366-2.116-.366-3.342zm2.936 0c0 .792.06 1.521.183 2.186.122.666.31 1.237.561 1.716.252.478.574.852.969 1.121.394.27.862.403 1.406.403.992 0 1.76-.426 2.304-1.278.543-.851.815-2.234.815-4.148 0-.762-.058-1.472-.174-2.13a6.325 6.325 0 0 0-.54-1.727c-.244-.493-.564-.878-.958-1.154-.395-.277-.876-.416-1.447-.416-.992 0-1.76.438-2.304 1.312-.543.875-.815 2.247-.815 4.115zM194.134 62.077h-5.504v12.96h-2.793V59.341h8.297v2.736z"/></g><g fill="#FFF"><path d="M73.904 70.598c0-.305.096-.545.289-.721.193-.175.45-.263.772-.263.336 0 .603.088.802.263.199.175.298.416.298.721 0 .293-.099.53-.298.71s-.466.271-.802.271c-.322 0-.579-.091-.772-.271s-.289-.417-.289-.71zM78.413 59.522h1.49v4.216h.074a2.858 2.858 0 0 1 1.09-.762c.44-.181.923-.271 1.444-.271 1.204 0 2.107.35 2.711 1.05.601.7.903 1.784.903 3.251 0 1.479-.398 2.603-1.192 3.37-.796.768-1.913 1.152-3.354 1.152a8.119 8.119 0 0 1-1.892-.203c-.565-.136-.99-.282-1.275-.44V59.522zm3.837 4.368c-.62 0-1.124.158-1.509.475s-.664.762-.838 1.337v4.269c.235.125.521.217.856.28.336.062.683.093 1.044.093.844 0 1.518-.271 2.021-.813.504-.542.755-1.39.755-2.541 0-.44-.044-.853-.131-1.236s-.224-.711-.409-.982c-.187-.271-.426-.485-.718-.643s-.649-.239-1.071-.239zM90.995 68.396l.524 1.625h.094l.411-1.643 1.813-5.47h1.49l-2.758 7.604c-.211.554-.418 1.089-.623 1.609a9.076 9.076 0 0 1-.68 1.389 3.63 3.63 0 0 1-.839.974 1.71 1.71 0 0 1-1.08.363c-.447 0-.813-.056-1.1-.168l.261-1.169c.161.056.317.085.467.085.347 0 .682-.167 1.005-.5.323-.333.591-.906.802-1.718l-3.745-8.468h1.715l2.243 5.487z"/></g></svg>
